Coordinates
version=1
nRows=10
nColumns=63
inDegrees=yes

Units are S.I. units (second, meters, Newtons, ...)
If the header above contains a line with 'inDegrees', this indicates whether rotational values are in degrees (yes) or radians (no).

endheader
time	pelvis_tilt	pelvis_list	pelvis_rotation	pelvis_tx	pelvis_ty	pelvis_tz	hip_flexion_r	hip_adduction_r	hip_rotation_r	knee_angle_r	knee_angle_r_beta	ankle_angle_r	subtalar_angle_r	mtp_angle_r	hip_flexion_l	hip_adduction_l	hip_rotation_l	knee_angle_l	knee_angle_l_beta	ankle_angle_l	subtalar_angle_l	mtp_angle_l	L5_S1_Flex_Ext	L5_S1_Lat_Bending	L5_S1_axial_rotation	L4_L5_Flex_Ext	L4_L5_Lat_Bending	L4_L5_axial_rotation	L3_L4_Flex_Ext	L3_L4_Lat_Bending	L3_L4_axial_rotation	L2_L3_Flex_Ext	L2_L3_Lat_Bending	L2_L3_axial_rotation	L1_L2_Flex_Ext	L1_L2_Lat_Bending	L1_L2_axial_rotation	L1_T12_Flex_Ext	L1_T12_Lat_Bending	L1_T12_axial_rotation	Abs_r3	Abs_r2	Abs_r1	Abs_t1	Abs_t2	neck_flexion	neck_bending	neck_rotation	arm_flex_r	arm_add_r	arm_rot_r	elbow_flex_r	pro_sup_r	wrist_flex_r	wrist_dev_r	arm_flex_l	arm_add_l	arm_rot_l	elbow_flex_l	pro_sup_l	wrist_flex_l	wrist_dev_l
      2.05000000	      4.24120710	     -0.37821460	     96.94196965	      0.22462717	      1.04924891	      0.34999927	     -2.19373465	      4.96507851	     -8.27297146	      5.97734630	      0.10432437	     29.39431959	     -3.32606127	      0.00000000	     -4.41143000	     -5.14737895	      7.03909569	      0.68359395	      0.01193097	     29.03492416	      3.27826600	      0.00000000	     -0.17208103	      0.31719768	     -1.28998347	     -0.31957167	      0.42187292	     -1.37060744	     -0.28271192	      0.77123444	     -1.37060744	     -0.19667140	      0.77123444	     -1.12873554	     -0.15979444	      0.64682951	     -1.04811157	     -0.09832710	      0.49133921	     -0.96748761	     -1.22915756	      3.58820361	     -7.17450109	      0.00000000	      0.00000000	      3.63933344	      1.44712242	      5.04533455	     28.43257776	    -20.75746876	     -9.96123164	    145.09759279	     87.45855335	     -4.26686722	     11.34570121	     22.71962915	    -28.62553458	    -14.28130881	    147.04022211	     88.28845116	     -3.33945671	     15.31006317
      2.06666667	      4.13035152	     -0.04578322	     97.16121065	      0.22457108	      1.04946451	      0.35027990	     -2.60889930	      4.91474830	     -8.79849084	      6.00726578	      0.10484657	     29.28976313	     -3.09214827	      0.00000000	     -4.73069087	     -5.10499819	      7.72843123	      0.67128318	      0.01171610	     28.92476449	      2.66734870	      0.00000000	     -0.18411378	      0.32039159	     -1.30175213	     -0.34191770	      0.42612081	     -1.38311163	     -0.30248053	      0.77900010	     -1.38311163	     -0.21042364	      0.77900010	     -1.13903311	     -0.17096805	      0.65334252	     -1.05767360	     -0.10520261	      0.49628657	     -0.97631409	     -1.31510630	      3.62433370	     -7.23995480	      0.00000000	      0.00000000	      3.07718597	      0.85256621	      6.29880925	     30.45800735	    -20.57431653	     -7.03232127	    146.29931190	     87.54504502	     -4.46182597	     14.41423426	     25.98406619	    -27.86038924	    -11.70038175	    146.35562700	     88.67636143	     -1.08276213	     17.20559386
      2.08333333	      3.94415052	     -0.12158947	     97.17166703	      0.22499907	      1.04946127	      0.35024153	     -2.63566713	      4.74352187	     -8.90721542	      5.93332014	      0.10355597	     29.14683491	     -3.08741363	      0.00000000	     -4.64655340	     -4.92675935	      7.72009400	      0.64694259	      0.01129128	     28.91087254	      2.58947324	      0.00000000	     -0.12535654	      0.30207036	     -1.33247796	     -0.23279964	      0.40175358	     -1.41575783	     -0.20594827	      0.73445387	     -1.41575783	     -0.14326999	      0.73445387	     -1.16591821	     -0.11640609	      0.61598187	     -1.08263834	     -0.07162873	      0.46790698	     -0.99935847	     -0.89540926	      3.41708030	     -7.41084265	      0.00000000	      0.00000000	      2.16556272	      0.39723116	      7.11089924	     32.36556174	    -19.96594183	     -3.61196488	    146.41658371	     87.71088319	     -3.53111280	     14.99166200	     28.71938541	    -27.28752079	     -8.94223433	    145.18256931	     88.92948437	     -0.22146029	     17.52710411
      2.10000000	      3.64316607	      0.41036086	     97.44626265	      0.22522576	      1.05011995	      0.35008444	     -3.25264557	      4.55015781	     -9.36565884	      5.98562134	      0.10446880	     29.30546671	     -3.11144850	      0.00000000	     -5.15964970	     -4.73892654	      8.05807268	      0.64892011	      0.01132579	     29.04748599	      2.47218138	      0.00000000	     -0.18198340	      0.27135911	     -1.35687823	     -0.33796138	      0.36090761	     -1.44168312	     -0.29898053	      0.65978254	     -1.44168312	     -0.20798883	      0.65978254	     -1.18726845	     -0.16898979	      0.55335549	     -1.10246356	     -0.10398532	      0.42033526	     -1.01765867	     -1.29988924	      3.06966851	     -7.54654967	      0.00000000	      0.00000000	      1.33956123	      0.65224930	      8.71877637	     34.62898670	    -19.65471463	     -0.57791313	    146.85113529	     87.92889920	     -2.60870903	     18.99759921	     32.01751986	    -26.55052955	     -6.20003179	    143.56807519	     89.03783142	      2.05169800	     18.50949397
      2.11666667	      3.50843082	      0.29604445	     97.44914274	      0.22562641	      1.05032074	      0.34952859	     -3.24746091	      4.43584710	     -9.50505991	      5.85229613	      0.10214184	     29.20471438	     -3.14934063	      0.00000000	     -5.03511708	     -4.60374842	      7.96116709	      0.64625819	      0.01127933	     29.05733232	      2.43000738	      0.00000000	     -0.13745518	      0.25018177	     -1.38316456	     -0.25526802	      0.33274176	     -1.46961235	     -0.22582512	      0.60829196	     -1.46961235	     -0.15709753	      0.60829196	     -1.21026899	     -0.12764088	      0.51017067	     -1.12382121	     -0.07854189	      0.38753157	     -1.03737342	     -0.98182863	      2.83010625	     -7.69274634	      0.00000000	      0.00000000	      0.58039009	      0.59597346	      9.06433676	     36.70380853	    -19.05575416	      2.58113015	    146.07804803	     88.12716932	     -1.66333973	     19.42453068	     34.22709593	    -25.78061887	     -3.87674505	    142.34024383	     89.10273630	      2.69814932	     18.65703427
      2.13333333	      3.29904507	      0.59894550	     97.59816215	      0.22574955	      1.05086450	      0.34896359	     -3.64841403	      4.29270615	     -9.76979022	      5.85753749	      0.10223332	     29.13858682	     -3.27237366	      0.00000000	     -5.34925721	     -4.45894011	      7.82770442	      0.66263369	      0.01156514	     29.07953545	      2.67205088	      0.00000000	     -0.18013422	      0.22694940	     -1.44619311	     -0.33452726	      0.30184270	     -1.53658018	     -0.29594251	      0.55180477	     -1.53658018	     -0.20587540	      0.55180477	     -1.26541897	     -0.16727264	      0.46279521	     -1.17503190	     -0.10292869	      0.35154462	     -1.08464483	     -1.28668073	      2.56729698	     -8.04329222	      0.00000000	      0.00000000	      0.11903365	      1.06483946	      9.93041417	     39.36448125	    -18.37954959	      5.55851822	    144.67327960	     88.34895774	     -0.65432627	     20.05044994	     36.31143988	    -25.35153732	     -2.07077609	    141.42650138	     89.09360552	      3.57315562	     18.55820063
      2.15000000	      3.22486646	      0.51584276	     97.62131563	      0.22577707	      1.05100213	      0.34813398	     -3.67519482	      4.23792038	     -9.69344317	      5.81304831	      0.10145683	     28.76179877	     -3.61558974	      0.00000000	     -5.25893249	     -4.39404564	      5.53019272	      0.72094872	      0.01258293	     29.43094320	      5.68663632	      0.00000000	     -0.16186719	      0.22986040	     -1.56550524	     -0.30060355	      0.30571433	     -1.66334932	     -0.26593160	      0.55888257	     -1.66334932	     -0.18499801	      0.55888257	     -1.36981709	     -0.15030987	      0.46873132	     -1.27197301	     -0.09249091	      0.35605376	     -1.17412893	     -1.15620112	      2.60022679	     -8.70687051	      0.00000000	      0.00000000	     -0.39436418	      1.24860421	     11.27118682	     42.30832184	    -17.28445662	      8.80122129	    142.33356453	     88.55206771	      0.09308691	     19.18109491	     37.27298773	    -25.21299169	     -1.41513158	    141.48480038	     89.05601617	      4.20424175	     18.48801035
      2.16666667	      3.13884360	      0.51467572	     97.46395597	      0.22592708	      1.05106700	      0.34746783	     -3.75829424	      4.15229489	     -9.50336575	      5.86146103	      0.10230179	     28.40424359	     -3.74285532	      0.00000000	     -5.29649688	     -4.28387901	      5.17235695	      0.76977856	      0.01343517	     29.33667005	      5.82722832	      0.00000000	     -0.16543454	      0.22546756	     -1.60298107	     -0.30722849	      0.29987186	     -1.70316739	     -0.27179241	      0.54820184	     -1.70316739	     -0.18907514	      0.54820184	     -1.40260844	     -0.15362252	      0.45977346	     -1.30242212	     -0.09452930	      0.34924926	     -1.20223580	     -1.18168241	      2.55053418	     -8.91529981	      0.00000000	      0.00000000	     -0.55396449	      1.59259255	     11.64352185	     44.97978400	    -16.25620283	     11.23194743	    139.72146978	     88.70718843	      0.54706775	     17.47756903	     38.38071218	    -25.11021892	     -0.44151702	    141.82708555	     89.00276287	      4.29115090	     18.49503347
      2.18333333	      3.11372425	      0.38094054	     97.30826652	      0.22607561	      1.05086573	      0.34689756	     -3.69054749	      4.10250523	     -9.22942174	      5.91495680	      0.10323547	     28.09494037	     -3.76221000	      0.00000000	     -5.17253663	     -4.22364341	      4.92373528	      0.84936118	      0.01482415	     29.28122739	      5.86541687	      0.00000000	     -0.14903488	      0.22418272	     -1.61235673	     -0.27677268	      0.29816301	     -1.71312903	     -0.24484941	      0.54507785	     -1.71312903	     -0.17033197	      0.54507785	     -1.41081214	     -0.13839379	      0.45715339	     -1.31003985	     -0.08515853	      0.34725903	     -1.20926755	     -1.06454127	      2.53599971	     -8.96744445	      0.00000000	      0.00000000	     -0.73503253	      2.07272999	     11.44132295	     47.34856617	    -15.32219793	     13.11309499	    137.44021390	     88.82690817	      0.72749223	     16.61245868	     39.50693186	    -25.10012689	      0.51121401	    142.39957835	     88.95251856	      4.48862559	     18.42578167
      2.20000000	      2.99192666	      0.42093095	     96.94451017	      0.22649049	      1.05071436	      0.34679412	     -3.74368829	      3.95389394	     -8.48644794	      6.04111889	      0.10543742	     27.94161004	     -4.01380730	      0.00000000	     -5.25422470	     -4.06334666	      4.46431775	      0.92382998	      0.01612387	     29.28785337	      5.93989141	      0.00000000	     -0.17383933	      0.22342006	     -1.61953780	     -0.32283702	      0.29714868	     -1.72075891	     -0.28560064	      0.54322353	     -1.72075891	     -0.19868097	      0.54322353	     -1.41709557	     -0.16142720	      0.45559818	     -1.31587446	     -0.09933179	      0.34607767	     -1.21465335	     -1.24171697	      2.52737238	     -9.00738336	      0.00000000	      0.00000000	     -0.29830547	      2.36813861	     11.96728672	     49.51847478	    -14.08515772	     15.01163545	    134.81250677	     88.90969658	      0.36050748	     14.06971094	     40.53061512	    -25.47693610	      0.92793300	    143.20367323	     88.91565377	      4.45552933	     18.31420684
